
<svg xmlns="http://www.w3.org/2000/svg" width="1440" height="900"><path d="M907,591L1132,458L1020,381Z" fill="#4ea85f" stroke="#4ea85f" stroke-width="1.51"/><path d="M907,591L1220,627L1132,458Z" fill="#339750" stroke="#339750" stroke-width="1.51"/><path d="M1020,381L790,379L907,591Z" fill="#5eb86a" stroke="#5eb86a" stroke-width="1.51"/><path d="M1302,275L943,278L1020,381Z" fill="#71b169" stroke="#71b169" stroke-width="1.51"/><path d="M943,278L790,379L1020,381Z" fill="#77c173" stroke="#77c173" stroke-width="1.51"/><path d="M943,278L781,242L790,379Z" fill="#8bcc7e" stroke="#8bcc7e" stroke-width="1.51"/><path d="M1132,458L1302,275L1020,381Z" fill="#60a762" stroke="#60a762" stroke-width="1.51"/><path d="M1036,-122L652,21L781,242Z" fill="#aedb9d" stroke="#aedb9d" stroke-width="1.51"/><path d="M1220,627L1302,275L1132,458Z" fill="#479958" stroke="#479958" stroke-width="1.51"/><path d="M907,591L941,1006L1220,627Z" fill="#208143" stroke="#208143" stroke-width="1.51"/><path d="M790,379L654,687L907,591Z" fill="#57b467" stroke="#57b467" stroke-width="1.51"/><path d="M525,552L654,687L790,379Z" fill="#6ec071" stroke="#6ec071" stroke-width="1.51"/><path d="M1220,627L1510,366L1302,275Z" fill="#498f55" stroke="#498f55" stroke-width="1.51"/><path d="M1119,1019L1417,653L1220,627Z" fill="#056b39" stroke="#056b39" stroke-width="1.51"/><path d="M1510,366L1413,284L1302,275Z" fill="#61935c" stroke="#61935c" stroke-width="1.51"/><path d="M506,196L525,552L790,379Z" fill="#9ad486" stroke="#9ad486" stroke-width="1.51"/><path d="M628,867L941,1006L654,687Z" fill="#3e8951" stroke="#3e8951" stroke-width="1.51"/><path d="M654,687L941,1006L907,591Z" fill="#359150" stroke="#359150" stroke-width="1.51"/><path d="M941,1006L1119,1019L1220,627Z" fill="#116536" stroke="#116536" stroke-width="1.51"/><path d="M1417,653L1510,366L1220,627Z" fill="#277d46" stroke="#277d46" stroke-width="1.51"/><path d="M479,633L628,867L654,687Z" fill="#60a661" stroke="#60a661" stroke-width="1.51"/><path d="M525,552L479,633L654,687Z" fill="#71b86d" stroke="#71b86d" stroke-width="1.51"/><path d="M781,242L506,196L790,379Z" fill="#a4d98b" stroke="#a4d98b" stroke-width="1.51"/><path d="M525,552L252,363L479,633Z" fill="#94d082" stroke="#94d082" stroke-width="1.51"/><path d="M652,21L506,196L781,242Z" fill="#bee499" stroke="#bee499" stroke-width="1.51"/><path d="M781,242L943,278L1036,-122Z" fill="#9dd186" stroke="#9dd186" stroke-width="1.51"/><path d="M1036,-122L943,278L1162,-110Z" fill="#99c591" stroke="#99c591" stroke-width="1.51"/><path d="M1803,500L1688,288L1510,366Z" fill="#4f8955" stroke="#4f8955" stroke-width="1.51"/><path d="M1119,1019L1531,845L1417,653Z" fill="#005631" stroke="#005631" stroke-width="1.51"/><path d="M1413,284L1402,12L1302,275Z" fill="#77a069" stroke="#77a069" stroke-width="1.51"/><path d="M1688,288L1402,12L1413,284Z" fill="#739865" stroke="#739865" stroke-width="1.51"/><path d="M1162,-110L943,278L1302,275Z" fill="#8ab976" stroke="#8ab976" stroke-width="1.51"/><path d="M1402,12L1162,-110L1302,275Z" fill="#87ad7d" stroke="#87ad7d" stroke-width="1.51"/><path d="M628,867L686,1083L941,1006Z" fill="#3a804d" stroke="#3a804d" stroke-width="1.51"/><path d="M941,1006L876,1191L1119,1019Z" fill="#1b6e3d" stroke="#1b6e3d" stroke-width="1.51"/><path d="M465,1153L686,1083L628,867Z" fill="#528a56" stroke="#528a56" stroke-width="1.51"/><path d="M686,1083L876,1191L941,1006Z" fill="#2d7b47" stroke="#2d7b47" stroke-width="1.51"/><path d="M1119,1019L1409,1139L1531,845Z" fill="#004d2c" stroke="#004d2c" stroke-width="1.51"/><path d="M876,1191L1205,1190L1119,1019Z" fill="#136537" stroke="#136537" stroke-width="1.51"/><path d="M1803,500L1510,366L1417,653Z" fill="#317c49" stroke="#317c49" stroke-width="1.51"/><path d="M1510,366L1688,288L1413,284Z" fill="#5f8f5b" stroke="#5f8f5b" stroke-width="1.51"/><path d="M479,633L393,917L628,867Z" fill="#65a062" stroke="#65a062" stroke-width="1.51"/><path d="M686,1083L780,1453L876,1191Z" fill="#367e4b" stroke="#367e4b" stroke-width="1.51"/><path d="M172,856L393,917L479,633Z" fill="#78a86a" stroke="#78a86a" stroke-width="1.51"/><path d="M1205,1190L1409,1139L1119,1019Z" fill="#015730" stroke="#015730" stroke-width="1.51"/><path d="M1775,886L1730,771L1531,845Z" fill="#004f2d" stroke="#004f2d" stroke-width="1.51"/><path d="M1531,845L1730,771L1417,653Z" fill="#055a31" stroke="#055a31" stroke-width="1.51"/><path d="M1162,-110L990,-260L1036,-122Z" fill="#98c392" stroke="#98c392" stroke-width="1.51"/><path d="M1036,-122L812,-240L652,21Z" fill="#aedba5" stroke="#aedba5" stroke-width="1.51"/><path d="M1270,-356L990,-260L1162,-110Z" fill="#92bc8e" stroke="#92bc8e" stroke-width="1.51"/><path d="M652,21L568,-120L506,196Z" fill="#d0ecb1" stroke="#d0ecb1" stroke-width="1.51"/><path d="M812,-240L568,-120L652,21Z" fill="#c3e5b1" stroke="#c3e5b1" stroke-width="1.51"/><path d="M506,196L252,363L525,552Z" fill="#b4e091" stroke="#b4e091" stroke-width="1.51"/><path d="M204,150L252,363L506,196Z" fill="#dbf1a4" stroke="#dbf1a4" stroke-width="1.51"/><path d="M990,-260L812,-240L1036,-122Z" fill="#a1d09b" stroke="#a1d09b" stroke-width="1.51"/><path d="M1730,771L1803,500L1417,653Z" fill="#16693a" stroke="#16693a" stroke-width="1.51"/><path d="M1771,-11L1364,-225L1402,12Z" fill="#819e81" stroke="#819e81" stroke-width="1.51"/><path d="M1402,12L1364,-225L1162,-110Z" fill="#88ac87" stroke="#88ac87" stroke-width="1.51"/><path d="M1205,1190L1391,1508L1409,1139Z" fill="#004f2d" stroke="#004f2d" stroke-width="1.51"/><path d="M876,1191L1133,1336L1205,1190Z" fill="#136536" stroke="#136536" stroke-width="1.51"/><path d="M876,1191L988,1498L1133,1336Z" fill="#196c3c" stroke="#196c3c" stroke-width="1.51"/><path d="M393,917L465,1153L628,867Z" fill="#5f905b" stroke="#5f905b" stroke-width="1.51"/><path d="M2031,771L1940,455L1803,500Z" fill="#207441" stroke="#207441" stroke-width="1.51"/><path d="M1794,1195L1775,886L1531,845Z" fill="#004529" stroke="#004529" stroke-width="1.51"/><path d="M1958,899L1775,886L1794,1195Z" fill="#004529" stroke="#004529" stroke-width="1.51"/><path d="M299,-51L204,150L506,196Z" fill="#ebf7b2" stroke="#ebf7b2" stroke-width="1.51"/><path d="M393,917L252,1221L465,1153Z" fill="#6e9662" stroke="#6e9662" stroke-width="1.51"/><path d="M252,363L125,670L479,633Z" fill="#9ad185" stroke="#9ad185" stroke-width="1.51"/><path d="M12,741L125,670L-109,361Z" fill="#a2d09a" stroke="#a2d09a" stroke-width="1.51"/><path d="M1364,-225L1270,-356L1162,-110Z" fill="#8ab189" stroke="#8ab189" stroke-width="1.51"/><path d="M990,-260L1270,-356L812,-240Z" fill="#9bc795" stroke="#9bc795" stroke-width="1.51"/><path d="M125,670L172,856L479,633Z" fill="#87b774" stroke="#87b774" stroke-width="1.51"/><path d="M450,-282L299,-51L568,-120Z" fill="#e3f4bf" stroke="#e3f4bf" stroke-width="1.51"/><path d="M568,-120L299,-51L506,196Z" fill="#e0f3bd" stroke="#e0f3bd" stroke-width="1.51"/><path d="M1688,288L1771,-11L1402,12Z" fill="#7e9c6f" stroke="#7e9c6f" stroke-width="1.51"/><path d="M1364,-225L1769,-285L1270,-356Z" fill="#819e81" stroke="#819e81" stroke-width="1.51"/><path d="M2004,204L1771,-11L1688,288Z" fill="#779a68" stroke="#779a68" stroke-width="1.51"/><path d="M1803,500L1940,455L1688,288Z" fill="#478652" stroke="#478652" stroke-width="1.51"/><path d="M2031,771L1803,500L1730,771Z" fill="#116335" stroke="#116335" stroke-width="1.51"/><path d="M465,1153L780,1453L686,1083Z" fill="#4b8753" stroke="#4b8753" stroke-width="1.51"/><path d="M812,-240L450,-282L568,-120Z" fill="#cdeab5" stroke="#cdeab5" stroke-width="1.51"/><path d="M1270,-356L450,-282L812,-240Z" fill="#add9a4" stroke="#add9a4" stroke-width="1.51"/><path d="M1673,1446L1794,1195L1409,1139Z" fill="#004529" stroke="#004529" stroke-width="1.51"/><path d="M780,1453L988,1498L876,1191Z" fill="#257744" stroke="#257744" stroke-width="1.51"/><path d="M1775,886L1958,899L1730,771Z" fill="#004c2c" stroke="#004c2c" stroke-width="1.51"/><path d="M1794,1195L1531,845L1409,1139Z" fill="#004529" stroke="#004529" stroke-width="1.51"/><path d="M125,670L12,741L172,856Z" fill="#8cb580" stroke="#8cb580" stroke-width="1.51"/><path d="M172,856L88,984L393,917Z" fill="#7b9b6a" stroke="#7b9b6a" stroke-width="1.51"/><path d="M465,1153L422,1527L780,1453Z" fill="#588d58" stroke="#588d58" stroke-width="1.51"/><path d="M-109,361L125,670L252,363Z" fill="#b8e0a1" stroke="#b8e0a1" stroke-width="1.51"/><path d="M12,741L88,984L172,856Z" fill="#83a47a" stroke="#83a47a" stroke-width="1.51"/><path d="M1391,1508L1205,1190L1133,1336Z" fill="#025830" stroke="#025830" stroke-width="1.51"/><path d="M2031,771L2004,204L1940,455Z" fill="#38804c" stroke="#38804c" stroke-width="1.51"/><path d="M1940,455L2004,204L1688,288Z" fill="#5e8f5b" stroke="#5e8f5b" stroke-width="1.51"/><path d="M88,984L252,1221L393,917Z" fill="#789a69" stroke="#789a69" stroke-width="1.51"/><path d="M1958,899L2031,771L1730,771Z" fill="#00522e" stroke="#00522e" stroke-width="1.51"/><path d="M1943,1329L2031,771L1958,899Z" fill="#004529" stroke="#004529" stroke-width="1.51"/><path d="M988,1498L1391,1508L1133,1336Z" fill="#095d33" stroke="#095d33" stroke-width="1.51"/><path d="M1900,-283L1769,-285L1771,-11Z" fill="#819e81" stroke="#819e81" stroke-width="1.51"/><path d="M1771,-11L1769,-285L1364,-225Z" fill="#819e81" stroke="#819e81" stroke-width="1.51"/><path d="M2004,204L2012,18L1771,-11Z" fill="#7f9d74" stroke="#7f9d74" stroke-width="1.51"/><path d="M2031,771L2012,18L2004,204Z" fill="#5b8e59" stroke="#5b8e59" stroke-width="1.51"/><path d="M450,-282L165,-223L299,-51Z" fill="#f1fac8" stroke="#f1fac8" stroke-width="1.51"/><path d="M299,-51L-53,-93L204,150Z" fill="#fcfdd2" stroke="#fcfdd2" stroke-width="1.51"/><path d="M204,150L-109,361L252,363Z" fill="#ddf1b0" stroke="#ddf1b0" stroke-width="1.51"/><path d="M-75,135L-109,361L204,150Z" fill="#eef8c4" stroke="#eef8c4" stroke-width="1.51"/><path d="M-36,1136L252,1221L88,984Z" fill="#7f9d75" stroke="#7f9d75" stroke-width="1.51"/><path d="M1794,1195L1918,1254L1958,899Z" fill="#004529" stroke="#004529" stroke-width="1.51"/><path d="M1391,1508L1673,1446L1409,1139Z" fill="#004529" stroke="#004529" stroke-width="1.51"/><path d="M-53,-93L-75,135L204,150Z" fill="#fdfed6" stroke="#fdfed6" stroke-width="1.51"/><path d="M1943,1329L1918,1254L1794,1195Z" fill="#004529" stroke="#004529" stroke-width="1.51"/><path d="M252,1221L422,1527L465,1153Z" fill="#6d9662" stroke="#6d9662" stroke-width="1.51"/><path d="M780,1453L422,1527L988,1498Z" fill="#3d824e" stroke="#3d824e" stroke-width="1.51"/><path d="M988,1498L422,1527L1391,1508Z" fill="#1f7340" stroke="#1f7340" stroke-width="1.51"/><path d="M212,1429L422,1527L252,1221Z" fill="#759866" stroke="#759866" stroke-width="1.51"/><path d="M2012,18L1900,-283L1771,-11Z" fill="#819e81" stroke="#819e81" stroke-width="1.51"/><path d="M1769,-285L1900,-283L1270,-356Z" fill="#819e81" stroke="#819e81" stroke-width="1.51"/><path d="M-36,1136L88,984L-194,1024Z" fill="#819e81" stroke="#819e81" stroke-width="1.51"/><path d="M26,1414L212,1429L252,1221Z" fill="#7e9c6e" stroke="#7e9c6e" stroke-width="1.51"/><path d="M-194,1024L88,984L12,741Z" fill="#819e81" stroke="#819e81" stroke-width="1.51"/><path d="M165,-223L-53,-93L299,-51Z" fill="#fcfed5" stroke="#fcfed5" stroke-width="1.51"/><path d="M-75,135L-291,256L-109,361Z" fill="#e7f6c1" stroke="#e7f6c1" stroke-width="1.51"/><path d="M1673,1446L1943,1329L1794,1195Z" fill="#004529" stroke="#004529" stroke-width="1.51"/><path d="M1918,1254L1943,1329L1958,899Z" fill="#004529" stroke="#004529" stroke-width="1.51"/><path d="M-36,1136L26,1414L252,1221Z" fill="#809d78" stroke="#809d78" stroke-width="1.51"/><path d="M-333,602L-194,1024L12,741Z" fill="#8ab289" stroke="#8ab289" stroke-width="1.51"/><path d="M-333,602L12,741L-109,361Z" fill="#a5d59f" stroke="#a5d59f" stroke-width="1.51"/><path d="M-53,-93L-184,-38L-75,135Z" fill="#ffffe5" stroke="#ffffe5" stroke-width="1.51"/><path d="M-67,-334L-184,-38L-53,-93Z" fill="#ffffe5" stroke="#ffffe5" stroke-width="1.51"/><path d="M-184,-38L-291,256L-75,135Z" fill="#fbfdcf" stroke="#fbfdcf" stroke-width="1.51"/><path d="M212,1429L26,1414L422,1527Z" fill="#7a9b6a" stroke="#7a9b6a" stroke-width="1.51"/><path d="M-209,1217L26,1414L-36,1136Z" fill="#819e81" stroke="#819e81" stroke-width="1.51"/><path d="M-341,471L-333,602L-109,361Z" fill="#b7dfaa" stroke="#b7dfaa" stroke-width="1.51"/><path d="M-291,256L-341,471L-109,361Z" fill="#d1ecb7" stroke="#d1ecb7" stroke-width="1.51"/><path d="M-201,-380L-67,-334L450,-282Z" fill="#fefede" stroke="#fefede" stroke-width="1.51"/><path d="M450,-282L-67,-334L165,-223Z" fill="#fbfdcf" stroke="#fbfdcf" stroke-width="1.51"/><path d="M165,-223L-67,-334L-53,-93Z" fill="#ffffe3" stroke="#ffffe3" stroke-width="1.51"/><path d="M-333,602L-209,1217L-194,1024Z" fill="#819e81" stroke="#819e81" stroke-width="1.51"/><path d="M-194,1024L-209,1217L-36,1136Z" fill="#819e81" stroke="#819e81" stroke-width="1.51"/><path d="M-67,-334L-201,-380L-184,-38Z" fill="#ffffe5" stroke="#ffffe5" stroke-width="1.51"/><path d="M-184,-38L-201,-380L-291,256Z" fill="#ffffe5" stroke="#ffffe5" stroke-width="1.51"/><path d="M-291,256L-201,-380L-341,471Z" fill="#fbfdcf" stroke="#fbfdcf" stroke-width="1.51"/><path d="M1270,-356L-201,-380L450,-282Z" fill="#daf0bb" stroke="#daf0bb" stroke-width="1.51"/><path d="M-333,602L-209,1453L-209,1217Z" fill="#819e81" stroke="#819e81" stroke-width="1.51"/><path d="M-209,1217L-209,1453L26,1414Z" fill="#819e81" stroke="#819e81" stroke-width="1.51"/><path d="M26,1414L-209,1453L422,1527Z" fill="#809d78" stroke="#809d78" stroke-width="1.51"/></svg>